<svg width="637" height="528" viewBox="0 0 637 528" fill="none" xmlns="http://www.w3.org/2000/svg">
<g filter="url(#filter0_d_346_216)">
<path d="M334.112 348.371L431.247 260L562.708 265.112L465.573 352.753L334.112 348.371Z" fill="#36AE82"/>
<path d="M461.921 368.09L329 363.708L376.472 512.697L514.506 520L461.921 368.09Z" fill="#36AE82"/>
<path d="M578.775 273.876L478.719 363.708L531.303 512.697L632.82 422.865L578.775 273.876Z" fill="#36AE82"/>
</g>
<path d="M570.269 389.482C580.213 376.701 573.865 365.294 569.448 361.189C561.888 356.042 552.002 355.288 551.994 351.429C551.451 348.643 551.237 344.359 547.02 344.709C543.288 345.019 542.367 347.983 542.31 349.346C541.677 351.946 542.054 360.576 551.161 363.896C558.315 366.189 571.962 368.962 563.159 383.619L546.552 406.567C541.083 414.324 540.21 420.17 540.967 427.241C541.99 435.478 548.727 442.569 562.631 457.03C563.61 457.911 566.215 459.28 568.801 457.707C571.388 456.134 571.417 453.754 571.108 452.76C567.174 446.294 562.308 442.502 554.64 434.427C550.79 431.011 545.663 420.397 556.489 407.61C567.209 394.356 570.269 389.482 570.269 389.482Z" fill="white"/>
<g filter="url(#filter1_d_346_216)">
<path d="M266.663 260L326.372 111.105H464.686L407.244 260H266.663Z" fill="#E94FAB"/>
<path d="M310.5 106.57L210.733 4.53488L148 153.43L252.5 252L310.5 106.57Z" fill="#E94FAB"/>
<path d="M323.349 93.7209L231.14 0H364.163L458.64 93.7209H323.349Z" fill="#E94FAB"/>
</g>
<path d="M331.018 219.911C326.501 208.822 333.846 200.821 337.27 197.846C339.361 196.496 344.138 189.36 345.604 185.782L370.123 140.891C370.717 139.813 370.849 137.201 368.274 135.445C365.7 133.69 362.882 135.23 362.02 136.849L334.398 186.987C333.469 188.822 332.216 190.27 330.466 191.595C318.535 200.623 319.024 219.433 325.704 228.79C331.664 237.138 348.935 238.735 354.725 237.66C367.41 233.987 371.311 234.404 381.045 239.233C388.608 239.535 402.885 236.974 403.2 220.788C403.516 204.602 391.065 199.993 384.189 199.719C380.981 199.945 380.308 202.36 380.11 204.102C379.686 207.834 383.955 208.18 386.435 208.887C393.961 210.84 395.368 217.953 394.823 221.237C392.422 231.72 384.466 230.86 380.412 228.908C371.12 223.578 360.133 226.032 355.375 227.909C348.824 229.851 335.534 231.001 331.018 219.911Z" fill="white"/>
<g filter="url(#filter2_d_346_216)">
<path d="M202.061 516.399L153.806 365.873L257.518 280.166L306.493 427.091L202.061 516.399Z" fill="#3376C6"/>
<path d="M138.681 369.474L4 359.391L50.8144 509.917L186.216 520L138.681 369.474Z" fill="#3376C6"/>
<path d="M15.5235 343.546L113.474 260L240.953 271.524L141.562 354.349L15.5235 343.546Z" fill="#3376C6"/>
</g>
<path d="M206.177 351.708C187.664 362.097 181.054 385.611 191.443 404.124C192.581 406.151 195.157 406.875 197.184 405.737C199.211 404.599 199.936 402.025 198.798 399.997C190.685 385.539 195.846 367.176 210.304 359.062C224.761 350.948 243.124 356.11 251.238 370.568C256.621 380.161 254.798 386.361 252.683 393.542C250.388 401.344 247.786 410.187 254.793 422.672C258.527 429.325 256.151 437.775 249.499 441.509C242.847 445.242 234.398 442.866 230.664 436.213C229.527 434.186 226.951 433.462 224.923 434.6C222.896 435.738 222.172 438.313 223.31 440.341C229.319 451.048 242.918 454.871 253.626 448.862C264.333 442.853 268.157 429.252 262.148 418.545C256.879 409.156 258.685 403.022 260.776 395.917C263.091 388.049 265.715 379.132 258.592 366.44C248.203 347.927 224.69 341.319 206.177 351.708Z" fill="white"/>
<defs>
<filter id="filter0_d_346_216" x="325" y="260" width="311.82" height="268" filterUnits="userSpaceOnUse" color-interpolation-filters="sRGB">
<feFlood flood-opacity="0" result="BackgroundImageFix"/>
<feColorMatrix in="SourceAlpha" type="matrix" values="0 0 0 0 0 0 0 0 0 0 0 0 0 0 0 0 0 0 127 0" result="hardAlpha"/>
<feOffset dy="4"/>
<feGaussianBlur stdDeviation="2"/>
<feColorMatrix type="matrix" values="0 0 0 0 0 0 0 0 0 0 0 0 0 0 0 0 0 0 0.25 0"/>
<feBlend mode="normal" in2="BackgroundImageFix" result="effect1_dropShadow_346_216"/>
<feBlend mode="normal" in="SourceGraphic" in2="effect1_dropShadow_346_216" result="shape"/>
</filter>
<filter id="filter1_d_346_216" x="144" y="0" width="324.686" height="268" filterUnits="userSpaceOnUse" color-interpolation-filters="sRGB">
<feFlood flood-opacity="0" result="BackgroundImageFix"/>
<feColorMatrix in="SourceAlpha" type="matrix" values="0 0 0 0 0 0 0 0 0 0 0 0 0 0 0 0 0 0 127 0" result="hardAlpha"/>
<feOffset dy="4"/>
<feGaussianBlur stdDeviation="2"/>
<feColorMatrix type="matrix" values="0 0 0 0 0 0 0 0 0 0 0 0 0 0 0 0 0 0 0.25 0"/>
<feBlend mode="normal" in2="BackgroundImageFix" result="effect1_dropShadow_346_216"/>
<feBlend mode="normal" in="SourceGraphic" in2="effect1_dropShadow_346_216" result="shape"/>
</filter>
<filter id="filter2_d_346_216" x="0" y="260" width="310.493" height="268" filterUnits="userSpaceOnUse" color-interpolation-filters="sRGB">
<feFlood flood-opacity="0" result="BackgroundImageFix"/>
<feColorMatrix in="SourceAlpha" type="matrix" values="0 0 0 0 0 0 0 0 0 0 0 0 0 0 0 0 0 0 127 0" result="hardAlpha"/>
<feOffset dy="4"/>
<feGaussianBlur stdDeviation="2"/>
<feColorMatrix type="matrix" values="0 0 0 0 0 0 0 0 0 0 0 0 0 0 0 0 0 0 0.25 0"/>
<feBlend mode="normal" in2="BackgroundImageFix" result="effect1_dropShadow_346_216"/>
<feBlend mode="normal" in="SourceGraphic" in2="effect1_dropShadow_346_216" result="shape"/>
</filter>
</defs>
</svg>
